<svg xmlns="http://www.w3.org/2000/svg" xml:space="preserve" id="forest" x="0" y="0" version="1.1" viewBox="0 0 128 128">
  <g fill="#9C3">
    <path d="M64 64l64 32-64 32L0 96z"></path>
    <path d="M64 64l64 32-64 32L0 96z"></path>
  </g>
  <ellipse cx="62.5" cy="77" opacity=".3" rx="7.5" ry="4"></ellipse>
  <path fill="#825012" d="M61 50v27c0 .6.7 1 1.5 1s1.5-.4 1.5-1V50h-3z"></path>
  <circle cx="55.5" cy="45.5" r="6.5" fill="#539B00"></circle>
  <circle cx="60" cy="37" r="9" fill="#539B00"></circle>
  <path fill="#825012" d="M63 65.4c2.6 0 3-.9 3-3.4v-8h1v10c0 1.7-1.3 3-3 3h-1v-1.6zM63 64.8c-1.7 0-3-.4-3-2.1V53h-1v10c0 1.7 1.3 3 3 3h1v-1.2zM61 43.8c-1.7 0-3-.4-3-2.1V39h-1v3c0 1.7 1.3 3 3 3h1v-1.2z"></path>
  <circle cx="67.5" cy="52.5" r="7.5" fill="#539B00"></circle>
  <circle cx="72" cy="49" r="6" fill="#539B00"></circle>
  <path fill="#825012" d="M67 51.8c1.7 0 3-.4 3-2.1V47h1v3c0 1.7-1.3 3-3 3h-1v-1.2zM60 36.4h1V46h-1z"></path>
  <circle cx="69" cy="39" r="8" fill="#539B00"></circle>
  <circle cx="64" cy="30" r="8" fill="#539B00"></circle>
  <path fill="#FFF" d="M64.5 38c2.2 0 4.1 1.3 4.9 3.1.3-.1.7-.1 1.1-.1 1.8 0 3.4.9 4.4 2.2-.4-1.8-2-3.2-3.9-3.2h-.1c-.5-2.3-2.5-4-4.9-4-2 0-3.7 1.2-4.5 2.9.8-.6 1.9-.9 3-.9z" opacity=".2"></path>
  <circle cx="55" cy="37.4" r="3.6" fill="#539B00"></circle>
  <path fill="#FFF" d="M55 37.5c0-2.5 1.7-4.6 4-5.3.2-2.9 2.5-5.2 5.5-5.2 1.7 0 3.3.8 4.3 2.1-.6-2.4-2.8-4.1-5.3-4.1-2.9 0-5.3 2.2-5.5 5.1-2.3.5-4 2.5-4 4.9 0 1.1.4 2.2 1 3v-.5z" opacity=".2"></path>
  <circle cx="60.3" cy="52.8" r="9.3" fill="#539B00"></circle>
  <circle cx="72.3" cy="46.8" r="3.3" fill="#539B00"></circle>
  <path d="M78 49c0-.4 0-.8-.1-1.2-.6 3.8-3.9 6.7-7.9 6.7h-.4c.7.3 1.6.5 2.4.5.7 0 1.3-.1 1.9-.3-1.4 1.4-3.3 2.3-5.4 2.3-1 0-2-.2-2.9-.6C64 58 61.7 59 59.3 59c-3.5 0-6.6-2-8.1-4.8.7 4.4 4.5 7.8 9.1 7.8 2.2 0 4.3-.8 5.9-2.1.4.1.8.1 1.3.1 3.5 0 6.5-2.4 7.3-5.7 1.9-1 3.2-3 3.2-5.3z" opacity=".3"></path>
  <path fill="#FFF" d="M57.5 48c.8 0 1.5.1 2.2.4.9-1.4 2.5-2.4 4.3-2.4 1 0 1.9.3 2.7.8-.7-1.7-2.3-2.8-4.2-2.8-1.6 0-3 .8-3.8 2H58c-2.9 0-5.4 2.1-5.9 4.9 1.2-1.8 3.2-2.9 5.4-2.9z" opacity=".2"></path>
  <path d="M53 48.5c-1.9-.8-3.4-2.4-3.9-4.5-.1.5-.2 1-.2 1.5 0 2.4 1.3 4.4 3.2 5.6.2-.9.5-1.8.9-2.6z" opacity=".3"></path>
  <g>
    <ellipse cx="35.5" cy="87" opacity=".3" rx="7.5" ry="4"></ellipse>
    <path fill="#825012" d="M37 63v24c0 .6-.7 1-1.5 1s-1.5-.4-1.5-1V63h3z"></path>
    <circle cx="44.5" cy="61.5" r="6.5" fill="#539B00"></circle>
    <circle cx="41" cy="53" r="9" fill="#539B00"></circle>
    <path fill="#825012" d="M35 75.4c-2.6 0-3-.9-3-3.4v-8h-1v10c0 1.7 1.3 3 3 3h1v-1.6zM36 76.8c1.7 0 3-.4 3-2.1V65h1v10c0 1.7-1.3 3-3 3h-1v-1.2z"></path>
    <path fill="#825012" d="M32 73.8c-1.7 0-2-1.3-2-2.1V62h-1v10c0 1.7 1.3 3 3 3v-1.2z"></path>
    <circle cx="31" cy="63" r="9" fill="#539B00"></circle>
    <circle cx="26" cy="59" r="6" fill="#539B00"></circle>
    <path fill="#825012" d="M31 62.8c-1.7 0-3-.4-3-2.1V58h-1v3c0 1.7 1.3 3 3 3h1v-1.2z"></path>
    <circle cx="30" cy="51" r="8" fill="#539B00"></circle>
    <circle cx="34" cy="47" r="8" fill="#539B00"></circle>
    <circle cx="40.5" cy="44.5" r="4.5" fill="#539B00"></circle>
    <path fill="#FFF" d="M26.1 53c2.2 0 4.1 1.3 4.9 3.1.3-.1.7-.1 1.1-.1 1.8 0 3.4.9 4.4 2.2-.4-1.8-2-3.2-3.9-3.2h-.1c-.5-2.3-2.5-4-4.9-4-2 0-3.7 1.2-4.5 2.9.8-.6 1.9-.9 3-.9z" opacity=".2"></path>
    <path fill="#825012" d="M34 50.4c.2.2.5.4.7.6h.3v-3c-.3 0-.7-.1-1-.2v2.6z"></path>
    <path fill="#FFF" d="M34.5 43c2.4 0 4.3 1.9 4.5 4.2.5-.1 1-.2 1.5-.2 2.5 0 4.6 1.6 5.3 3.9.1-.4.2-.9.2-1.4 0-2.5-2-4.5-4.5-4.5-.5 0-1 .1-1.5.3-.1-1.8-1.6-3.3-3.5-3.3-1 0-1.9.4-2.5 1h.5z" opacity=".2"></path>
    <path d="M49.9 54.4c-1.7 1.9-4.1 3.1-6.8 3.1h-.6c1 1.1 1.6 2.4 1.7 3.9 2.9-1.1 5.2-3.8 5.7-7zM47.5 64.7c.3.7.4 1.5.5 2.3 1.7-1.1 2.9-2.9 3-5-.8 1.3-2.1 2.2-3.5 2.7zM25.7 53c-1.6-1.4-2.7-3.5-2.7-5.9-.6 1.1-1 2.5-1 3.9 0 1.1.2 2.1.6 3.1.9-.7 2-1 3.1-1.1z" opacity=".3"></path>
    <path fill="#825012" d="M41 54.6c0 1.7-1.3 2.1-3 2.1V58h1c1.7 0 3-1.3 3-3v-2c-.3 0-.7-.1-1-.2v1.8z"></path>
    <circle cx="38.8" cy="65.8" r="9.3" fill="#539B00"></circle>
    <path fill="#FFF" d="M35 63c1.2 0 2.3.3 3.3.8 1.2-1.1 2.9-1.8 4.7-1.8 1.6 0 3.1.5 4.2 1.4-1.1-2-3.3-3.4-5.7-3.4-1.6 0-3.1.6-4.2 1.6-.7-.4-1.5-.6-2.3-.6-2.4 0-4.4 1.7-4.9 4 1.3-1.2 3-2 4.9-2z" opacity=".2"></path>
    <path d="M39.8 73c-3.8 0-7-2-8.8-5h-.9c-3.5 0-6.5-2-8-4.9.1 4.9 4.1 8.9 9 8.9h.9c1.7 1.9 4.1 3 6.8 3 3.6 0 6.6-2 8.2-4.9-1.9 1.8-4.5 2.9-7.2 2.9z" opacity=".3"></path>
  </g>
  <g>
    <path d="M11.3 95L6 96.9l3.8.2-2.4 1.5h5.5l3.1-.9-.5 2.7 3.3-.6 2.4-2 4.6 1.5 4.8-.7-1.5-.9 1.7-.5-6.9-1.8z" opacity=".3"></path>
    <path fill="#28896D" d="M13.4 75c3.9-.5 5.8-8 5.8-8s.8 7.4 5.8 9.4c.1.7-1.7 1.3-3.3.6-.1 1.5 3.2 3.9 5.2 4.4.1.8-1.8 2-3.6 1.4.8 1.8 2.2 3.3 5.2 4.1-1.4.8-3.6.1-5 0 0 1.2 4.4 2.3 6.6 2.2-.4 1.1-2.5 2.3-4.4 2.2 0 1.3 4.3 2.4 5.5 2.8.1 1.1-3 1.8-5.2 1.1-.1 1.3 2.2 2.5 3.3 3 0 1-7.1.7-8.3-1.4-1.3.5-2.2 3.3-4.8 3.1.3-.7 1.1-3.1-.2-3.6-1 1.4-5.4 2.5-7.2 1.7.5-.5 3-.8 2.2-2.5-2.3-.1-5.3-2.1-5.2-3 .6.4 4.3 1 4.4 0-1.7-.1-2.7-1.4-2.8-2.5.6.3 4.3.9 4.4-.3-1.3-.5-2.9-1.4-2.8-2.5 1.1.1 3.4.1 3.6-1.1-1.4-.5-2.7-2.5-2.8-3.3 1 .3 5 .1 5-.8-1.7-.1-3.2-.8-3-1.9 2.2-.2 4.7-2.5 4.7-3.6-.7.1-2.5-.2-3.1-1.5z"></path>
    <path fill="#FFF" d="M28.6 86.8s-2.8.1-5.2-2.2c-2.4-2.3-3-3.9-3-3.9s-.6.8-2.5 1.9c-1.9 1.2-6.1 1.1-6.1 1.1s2.6 2 6.3.8c1.8-.6 1.7-1 1.7-1s2.6 2.2 3.6 2.6c3.7 1.5 5.2.7 5.2.7z" opacity=".2"></path>
    <path fill="#FFF" d="M13.2 80.2c3.3-1.8 5.4-3.2 6.1-6.1-.2 1.3 2.6 5 5.2 6.9-1.9-.2-4.4-3.4-5.5-3.3-.3 1-3.6 2.3-5.8 2.5z" opacity=".2"></path>
    <path fill="#FFF" d="M14.7 75.3c3.3-1.8 3.9-4.1 4.5-6.9-.2 1.3 1.5 5.5 4.1 7.4-1.9-.2-3.6-3-4.4-3.6-.2 1-2 2.9-4.2 3.1zM9.8 87.6s4.1-.1 7.2-1.6c1-.1 2.3 2.9 3 3 .8-.2 1.2-.4 2-.9.7 2.8 5.7 5.3 8.5 6.1-5.2 0-8.8-3.4-9.4-4.4-.6.5-.8 1.9-1.9 1.9-1-1.4-2.4-3.4-2.8-4.4-1-.1-5 1.2-6.6.3z" opacity=".2"></path>
    <path fill="#FFF" d="M7.3 93.2c5.8.6 7.9-2 8.9-3.1-.6 4-7.2 5.1-8.9 3.1zM22.6 92.5c1.6 2.7 2.3 4.2 6 5.5-6.1.3-6.7-4.3-6-5.5zM17.1 99.1c.3.2 3.9-5.5 1.3-6.5-1.4.8-.2 3.7-1.3 6.5z" opacity=".2"></path>
    <path d="m21.2 75.7-1.5-1.2s1.2 1.5 2 2.4c1.6.8 3.4.1 3.3-.6 0 .1-2.3.6-3.8-.6zM23.2 96.5c-1.8-1.9-2.3-4.8-2.3-4.8s-1.1 3.8-2 5.6c-.6 1.1-1.1 2-2.5 2.4v.1c2.6.2 3.5-2.6 4.8-3.1 1.2 2.1 8.3 2.4 8.3 1.4-.1 0-4.5.3-6.3-1.6zM26.4 89.9c-1.8-.1-4.4-3.5-4.4-3.5s-1.3.6-2 .1-1.4-1.1-1.4-1.1.7 3.2 1.7 3.1c1-.1 1.6-.4 2-.9.5 2.5 3.7 3.8 3.7 3.8 1.9.1 4-1.1 4.4-2.2-.2-.2-2.2.8-4 .7zM15.1 81.9c.5 0 1.1 0 1.6-.1 1.4-.2 3.8-1.5 3.8-1.5l-1.8.2.7-1.6s-2.1 1.7-4 2c-1.9.2-3.3-.9-3.3-.9-.2 1 1.3 1.7 3 1.9zM12.1 89.6c-.1 1.2-3.8.6-4.4.3 2.7 1.8 7.8-.3 7.8-.3H13l2.8-1.4s-6.3.4-6.5-1.2c-.1 1.2 1.5 2.1 2.8 2.6z" opacity=".3"></path>
    <path d="M14.7 90.9s-2 .6-3.3.6c-1.3 0-3.6-1.2-3.7-1.6.1 1 1.1 2.3 2.7 2.4 3.2.3 4.3-1.4 4.3-1.4zM17.2 96.8c0-1.1-.3-7.6-.3-7.6s-.1 3.9-3.6 7.2C12.1 97.5 9 97.8 9 97.8c1.8.8 6.1-.2 7.2-1.7 1 .4.7 1.9.4 2.9.3-.5.6-1.5.6-2.2z" opacity=".3"></path>
  </g>
  <g>
    <path d="M66.2 89.1l-9.4 3.3 6.7.4-4.1 2.8 9.6-.2 5.6-1.4-.9 4.7 5.9-1 4.2-3.6 8.2 2.6 8.5-1.1-2.7-1.7 3-.8-12.3-3.4z" opacity=".3"></path>
    <path fill="#28896D" d="M101.8 87.3c-2.1-.6-9.8-2.6-9.8-4.9 3.3.2 7.1-1.9 7.8-3.9-2.5.2-6.4-.6-9.1-1.7-.4-.5-.7-1-.8-1.5 2.3.6 5 .4 6.9-.7-1.1-.3-2.1-.6-2.9-1 1.2-1 2-2.3 2.5-3.1-2.4.7-6.9-.1-6.9-2.2 2.6.2 5.5-1.8 6.1-3.7-.9.1-2.1-.1-3.3-.3-1.7-.8-3.7-2-5.2-3.3 1.8.3 4.5 1.1 6.2-.1-2.4-.8-4-1.9-5.2-3.3 1.4-.2 2.5-.9 2.4-1.6-1.1-.4-2.1-1.1-3-1.8 2 0 3.6-1.5 3.5-2.6-2.8-.9-7.5-4.8-7.3-7.4 2.2 1.3 4.7.2 4.6-.9-6.9-3.3-8-15.7-8-15.7S77.7 41.3 72.2 42c.8 2.2 3.4 2.3 4.6 1.2 0 1.7-3.4 5.7-6.5 6-.1 1.4 1 2.4 2.7 2.9-.9.7-2 1.1-3.1 1.3l.3.6c-1.1.1-2.1 0-2.6-.2.1 1.3 1.9 4.7 3.8 5.5-.2 2-3.4 2.1-5 1.8-.1 1.3.8 2.3 2.1 3.2.6.4 1.2.7 1.7 1-.2 2-5.3 1-6.1.5 0 .6.2 1.2.5 1.8.4 1 .9 2.2 1.7 3.2-1.6.1-4-.4-4.5-.9-.1 1.3 2.7 3.7 5.4 4.7-1.4.5-3.5.5-4.7.3-.2 2 2.6 3.5 4.9 4.4-.2 2.1-6.8 1.1-7.8.5.1 1.8 2 4.2 4.9 4.4-.2 1.7-6.9.7-7.8 0-.1 1.7 5.3 5.3 9.3 5.4 1.3 2.9-3.1 3.5-3.9 4.4 3.2 1.5 10.9-.4 12.7-2.9 2.2 1 .9 5.2.3 6.4 4.6.3 6.2-4.6 8.5-5.5 2.1 3.7 14.7 4.3 14.7 2.4-2-1-6-3.1-5.9-5.4 4 1.5 9.7.3 9.4-1.7z"></path>
    <path fill="#FFF" d="M96.9 74.6s-5 .2-9.3-3.9c-4.3-4.2-5.4-6.9-5.4-6.9s-1 1.3-4.4 3.4c-3.4 2.1-10.8 2-10.8 2s4.7 3.5 11.3 1.5c3.2-1 2.9-1.7 2.9-1.7s4.6 3.9 6.4 4.6c6.6 2.4 9.3 1 9.3 1zM68.5 54.4c5.5-.1 8.8-2 11-3.9.4 1.4 2.5 6.6 10.6 9.6-3.4-.4-11.4-3.8-11.2-5.9-.4 1.7-6.8 4.2-10.4.2zM75.1 41.3c5.1-3.2 4.3-4.9 5.2-8.9-.4 2.3 1.7 7.5 6.3 11-4.4-.9-5.7-3.7-6.6-5.8-.3 1.6-2 2.8-4.9 3.7z" opacity=".2"></path>
    <path fill="#FFF" d="M72.8 49.9c5.9-3.2 7.6-3.4 8.8-8.4-.4 2.3 2 5.9 6.6 9.3-3.4-.4-4.9-3.6-6.3-4.7-.3 1.7-5 3.4-9.1 3.8zM63.5 75.9s7.3-.1 12.9-2.8c1.7-.1 4.2 5.1 5.4 5.4 1.3-.4 2.1-.7 3.5-1.6 1.2 5 10.1 9.4 15.1 10.9-9.2 0-15.7-6-16.6-7.8-1.1.9-1.3 3.4-3.4 3.4-1.7-2.4-4.3-6-4.9-7.8-1.9-.4-9.2 2-12 .3z" opacity=".2"></path>
    <path fill="#FFF" d="M59.1 85.9c10.3 1.1 14-3.6 15.8-5.5-1.1 7.2-12.7 9.1-15.8 5.5zM86.3 84.6c2.9 4.8 4 7.5 10.7 9.7-10.8.7-11.9-7.4-10.7-9.7zM76.6 96.3c.6.3 6.9-9.7 2.3-11.5-2.6 1.4-.4 6.6-2.3 11.5z" opacity=".2"></path>
    <path d="m83.9 54.9-2.6-2.1s2.1 2.6 3.5 4.3c2.8 1.4 6 .2 5.9-1-.1-.1-4.2.9-6.8-1.2zM87.3 91.8c-3.3-3.4-4-8.5-4-8.5s-2 6.8-3.5 9.9c-1 2-1.9 3.6-4.5 4.3 0 .1 0 .1-.1.2 4.6.3 6.2-4.6 8.5-5.5 2.1 3.7 14.7 4.3 14.7 2.4 0 .1-7.8.6-11.1-2.8zM93 80c-3.3-.2-7.8-6.3-7.8-6.3s-2.3 1.1-3.6.2c-1.3-.9-2.5-2-2.5-2s1.2 5.7 2.9 5.4c1.8-.3 2.8-.8 3.5-1.6.8 4.4 6.5 6.8 6.5 6.7 3.3.2 7.1-1.9 7.8-3.9.1 0-3.5 1.7-6.8 1.5zM72.7 65.8v-.6c1 0 1.9.5 2.8.4 2.5-.3 6.7-3.3 6.7-3.3l-3.2.4 1.3-2.8s-3.8 3.1-7.1 3.5c-3.4.4-6.4-1.8-6.4-1.8-.3 1.9 2.8 3.9 5.9 4.2zM67.6 79.5c-.2 2.1-6.8 1.1-7.8.5 4.8 3.1 13.9-.5 13.9-.5l-4.4.1 5-2.4s-11.1.7-11.6-2.1c-.3 1.9 2.5 3.5 4.9 4.4z" opacity=".3"></path>
    <path d="M72.2 81.8s-3.5 1-5.9 1c-2.2 0-6.4-2.2-6.6-2.8.2 1.8 2 4.1 4.9 4.3 5.7.6 7.6-2.5 7.6-2.5zM76.7 92.2c0-2-.5-13.5-.5-13.5s-.3 6.9-6.5 12.8c-2.1 2-7.5 2.6-7.5 2.6 3.2 1.5 10.9-.4 12.7-2.9 1.7.8 1.3 3.4.8 5.2.4-1.2 1-2.9 1-4.2zM95.7 64.5s-3.3 1.8-6.6 1-5.7-3-5.7-3 1.3 3.7 2.8 6c1.6 2.4 7.5 4.5 10.3 2-2.4.7-6.9-.1-6.9-2.2 2.6.1 5.5-1.9 6.1-3.8zM87.4 51.8c-2.8-.4-5.6-3.9-5.6-3.9s-2.8 1.5-.1 3.3c2.7 1.7.3 2.2 5.8 3.1 2 0 3.6-1.5 3.5-2.6.1-.1-.9.4-3.6.1zM70.4 49.3s2 .5 6.6-2.4 3-8 3-8-1.7 2.3-3.5 2.6c-1.5.2-3.1.7-4 .6h-.3c.8 2.2 3.4 2.3 4.6 1.2.1 1.8-3.3 5.7-6.4 6z" opacity=".3"></path>
  </g>
  <g>
    <ellipse cx="51.5" cy="110" opacity=".3" rx="7.5" ry="4"></ellipse>
    <path fill="#825012" d="M50 83v27c0 .6.7 1 1.5 1s1.5-.4 1.5-1V83h-3z"></path>
    <circle cx="44.5" cy="78.5" r="6.5" fill="#539B00"></circle>
    <circle cx="49" cy="70" r="9" fill="#539B00"></circle>
    <path fill="#825012" d="M52 98.4c2.6 0 3-.9 3-3.4v-8h1v10c0 1.7-1.3 3-3 3h-1v-1.6zM52 97.8c-1.7 0-3-.4-3-2.1V86h-1v10c0 1.7 1.3 3 3 3h1v-1.2zM50 76.8c-1.7 0-3-.4-3-2.1V72h-1v3c0 1.7 1.3 3 3 3h1v-1.2z"></path>
    <circle cx="56.5" cy="85.5" r="7.5" fill="#539B00"></circle>
    <circle cx="61" cy="82" r="6" fill="#539B00"></circle>
    <path fill="#825012" d="M56 84.8c1.7 0 3-.4 3-2.1V80h1v3c0 1.7-1.3 3-3 3h-1v-1.2zM49 69.4h1V79h-1z"></path>
    <circle cx="58" cy="72" r="8" fill="#539B00"></circle>
    <circle cx="53" cy="63" r="8" fill="#539B00"></circle>
    <path fill="#FFF" d="M53.5 71c2.2 0 4.1 1.3 4.9 3.1.3-.1.7-.1 1.1-.1 1.8 0 3.4.9 4.4 2.2-.4-1.8-2-3.2-3.9-3.2h-.1c-.5-2.3-2.5-4-4.9-4-2 0-3.7 1.2-4.5 2.9.8-.6 1.9-.9 3-.9z" opacity=".2"></path>
    <circle cx="44" cy="70.4" r="3.6" fill="#539B00"></circle>
    <path fill="#FFF" d="M44 70.5c0-2.5 1.7-4.6 4-5.3.2-2.9 2.5-5.2 5.5-5.2 1.7 0 3.3.8 4.3 2.1-.6-2.4-2.8-4.1-5.3-4.1-2.9 0-5.3 2.2-5.5 5.1-2.3.5-4 2.5-4 4.9 0 1.1.4 2.2 1 3v-.5z" opacity=".2"></path>
    <circle cx="49.3" cy="85.8" r="9.3" fill="#539B00"></circle>
    <circle cx="61.3" cy="79.8" r="3.3" fill="#539B00"></circle>
    <path d="M67 82c0-.4 0-.8-.1-1.2-.6 3.8-3.9 6.7-7.9 6.7h-.4c.7.3 1.6.5 2.4.5.7 0 1.3-.1 1.9-.3-1.4 1.4-3.3 2.3-5.4 2.3-1 0-2-.2-2.9-.6C53 91 50.7 92 48.3 92c-3.5 0-6.6-2-8.1-4.8.7 4.4 4.5 7.8 9.1 7.8 2.2 0 4.3-.8 5.9-2.1.4.1.8.1 1.3.1 3.5 0 6.5-2.4 7.3-5.7 1.9-1 3.2-3 3.2-5.3z" opacity=".3"></path>
    <path fill="#FFF" d="M46.5 81c.8 0 1.5.1 2.2.4.9-1.4 2.5-2.4 4.3-2.4 1 0 1.9.3 2.7.8-.7-1.7-2.3-2.8-4.2-2.8-1.6 0-3 .8-3.8 2H47c-2.9 0-5.4 2.1-5.9 4.9 1.2-1.8 3.2-2.9 5.4-2.9z" opacity=".2"></path>
    <path d="M42 81.5c-1.9-.8-3.4-2.4-3.9-4.5-.1.5-.2 1-.2 1.5 0 2.4 1.3 4.4 3.2 5.6.2-.9.5-1.8.9-2.6z" opacity=".3"></path>
  </g>
  <g>
    <ellipse cx="101.5" cy="99" opacity=".3" rx="7.5" ry="4"></ellipse>
    <path fill="#825012" d="M103 75v24c0 .6-.7 1-1.5 1s-1.5-.4-1.5-1V75h3z"></path>
    <circle cx="110.5" cy="73.5" r="6.5" fill="#539B00"></circle>
    <circle cx="107" cy="65" r="9" fill="#539B00"></circle>
    <path fill="#825012" d="M101 87.4c-2.6 0-3-.9-3-3.4v-8h-1v10c0 1.7 1.3 3 3 3h1v-1.6zM102 88.8c1.7 0 3-.4 3-2.1V77h1v10c0 1.7-1.3 3-3 3h-1v-1.2z"></path>
    <path fill="#825012" d="M98 85.8c-1.7 0-2-1.3-2-2.1V74h-1v10c0 1.7 1.3 3 3 3v-1.2z"></path>
    <circle cx="97" cy="75" r="9" fill="#539B00"></circle>
    <circle cx="92" cy="71" r="6" fill="#539B00"></circle>
    <path fill="#825012" d="M97 74.8c-1.7 0-3-.4-3-2.1V70h-1v3c0 1.7 1.3 3 3 3h1v-1.2z"></path>
    <circle cx="96" cy="63" r="8" fill="#539B00"></circle>
    <circle cx="100" cy="59" r="8" fill="#539B00"></circle>
    <circle cx="106.5" cy="56.5" r="4.5" fill="#539B00"></circle>
    <path fill="#FFF" d="M92.1 65c2.2 0 4.1 1.3 4.9 3.1.3-.1.7-.1 1.1-.1 1.8 0 3.4.9 4.4 2.2-.4-1.8-2-3.2-3.9-3.2h-.1c-.5-2.3-2.5-4-4.9-4-2 0-3.7 1.2-4.5 2.9.8-.6 1.9-.9 3-.9z" opacity=".2"></path>
    <path fill="#825012" d="M100 62.4c.2.2.5.4.7.6h.3v-3c-.3 0-.7-.1-1-.2v2.6z"></path>
    <path fill="#FFF" d="M100.5 55c2.4 0 4.3 1.9 4.5 4.2.5-.1 1-.2 1.5-.2 2.5 0 4.6 1.6 5.3 3.9.1-.4.2-.9.2-1.4 0-2.5-2-4.5-4.5-4.5-.5 0-1 .1-1.5.3-.1-1.8-1.6-3.3-3.5-3.3-1 0-1.9.4-2.5 1h.5z" opacity=".2"></path>
    <path d="M115.9 66.4c-1.7 1.9-4.1 3.1-6.8 3.1h-.6c1 1.1 1.6 2.4 1.7 3.9 2.9-1.1 5.2-3.8 5.7-7zM113.5 76.7c.3.7.4 1.5.5 2.3 1.7-1.1 2.9-2.9 3-5-.8 1.3-2.1 2.2-3.5 2.7zM91.7 65c-1.6-1.4-2.7-3.5-2.7-5.9-.6 1.1-1 2.5-1 3.9 0 1.1.2 2.1.6 3.1.9-.7 2-1 3.1-1.1z" opacity=".3"></path>
    <path fill="#825012" d="M107 66.6c0 1.7-1.3 2.1-3 2.1V70h1c1.7 0 3-1.3 3-3v-2c-.3 0-.7-.1-1-.2v1.8z"></path>
    <circle cx="104.8" cy="77.8" r="9.3" fill="#539B00"></circle>
    <path fill="#FFF" d="M101 75c1.2 0 2.3.3 3.3.8 1.2-1.1 2.9-1.8 4.7-1.8 1.6 0 3.1.5 4.2 1.4-1.1-2-3.3-3.4-5.7-3.4-1.6 0-3.1.6-4.2 1.6-.7-.4-1.4-.6-2.3-.6-2.4 0-4.4 1.7-4.9 4 1.3-1.2 3-2 4.9-2z" opacity=".2"></path>
    <path d="M105.8 85c-3.8 0-7-2-8.8-5h-.9c-3.5 0-6.5-2-8-4.9.1 4.9 4.1 8.9 9 8.9h.9c1.7 1.9 4.1 3 6.8 3 3.6 0 6.6-2 8.2-4.9-1.9 1.8-4.5 2.9-7.2 2.9z" opacity=".3"></path>
  </g>
  <g>
    <path d="M71.4 109.2l-5.7 2 4.1.2-2.5 1.7 5.8-.1 3.4-.8-.6 2.8 3.6-.6 2.6-2.2 4.9 1.6 5.2-.7-1.6-1 1.8-.5-7.5-2z" opacity=".3"></path>
    <path fill="#28896D" d="M73.7 87.7c4.2-.5 6.2-8.6 6.2-8.6s.9 8 6.2 10.1c.1.7-1.9 1.4-3.6.6-.1 1.6 3.5 4.1 5.6 4.7.1.9-1.9 2.1-3.9 1.5.9 1.9 2.3 3.6 5.6 4.4-1.5.9-3.9.1-5.3 0 0 1.3 4.7 2.5 7.1 2.4-.4 1.2-2.7 2.5-4.7 2.4 0 1.4 4.7 2.6 5.9 3 .1 1.2-3.3 1.9-5.6 1.2-.1 1.4 2.4 2.7 3.6 3.3 0 1.1-7.6.7-8.9-1.5-1.4.5-2.4 3.5-5.1 3.3.4-.8 1.1-3.3-.2-3.9-1.1 1.6-5.8 2.7-7.7 1.8.5-.5 3.2-.9 2.4-2.7-2.4-.1-5.7-2.2-5.6-3.3.6.4 4.6 1 4.7 0-1.8-.1-2.9-1.6-3-2.7.6.3 4.6 1 4.7-.3-1.4-.5-3.1-1.5-3-2.7 1.2.1 3.7.1 3.9-1.2-1.5-.5-2.9-2.7-3-3.6 1.1.3 5.4.1 5.3-.9-1.9-.1-3.4-.9-3.3-2.1 2.4-.2 5-2.7 5-3.9-.7.4-2.6.1-3.3-1.3z"></path>
    <path fill="#FFF" d="M90 100.4s-3 .1-5.6-2.4c-2.6-2.5-3.3-4.1-3.3-4.1s-.6.8-2.7 2.1-6.5 1.2-6.5 1.2 2.8 2.1 6.8.9c2-.6 1.8-1 1.8-1s2.8 2.4 3.8 2.8c4.1 1.4 5.7.5 5.7.5zM73.4 93.3c3.6-1.9 5.8-3.5 6.5-6.5-.2 1.4 2.8 5.3 5.6 7.4-2.1-.2-4.7-3.7-5.9-3.6-.2 1.1-3.7 2.5-6.2 2.7z" opacity=".2"></path>
    <path fill="#FFF" d="M75.1 88c3.6-1.9 4.2-4.4 4.9-7.5-.2 1.4 1.6 5.9 4.4 8-2.1-.2-3.9-3.2-4.7-3.9-.3 1.1-2.2 3.2-4.6 3.4zM69.8 101.2s4.4-.1 7.8-1.7c1-.1 2.5 3.1 3.3 3.3.8-.2 1.3-.4 2.1-1 .7 3.1 6.1 5.7 9.1 6.6-5.5 0-9.5-3.6-10.1-4.7-.7.5-.8 2.1-2.1 2.1-1-1.5-2.6-3.6-3-4.7-1-.3-5.4 1.1-7.1.1z" opacity=".2"></path>
    <path fill="#FFF" d="M67.1 107.3c6.2.7 8.5-2.2 9.5-3.3-.6 4.3-7.6 5.5-9.5 3.3zM83.6 106.5c1.8 2.9 2.4 4.6 6.5 5.9-6.6.4-7.3-4.6-6.5-5.9zM77.7 113.6c.4.2 4.2-5.9 1.4-7-1.6.8-.2 4-1.4 7z" opacity=".2"></path>
    <path d="m82.1 88.5-1.6-1.3s1.3 1.6 2.1 2.6c1.7.8 3.7.1 3.6-.6 0-.1-2.5.6-4.1-.7zM84.2 110.8c-2-2-2.4-5.1-2.4-5.1s-1.2 4.1-2.1 6c-.6 1.2-1.2 2.2-2.7 2.6v.1c2.8.2 3.7-2.8 5.1-3.3 1.3 2.2 8.9 2.6 8.9 1.5-.1 0-4.8.3-6.8-1.8zM87.6 103.7c-2-.1-4.7-3.8-4.7-3.8s-1.4.7-2.2.1c-.8-.6-1.5-1.2-1.5-1.2s.7 3.5 1.8 3.3c1.1-.2 1.7-.5 2.1-1 .5 2.6 3.9 4.1 3.9 4.1 2 .1 4.3-1.1 4.7-2.4.1 0-2.1 1-4.1.9zM75.5 95.1c.6 0 1.2 0 1.7-.1 1.5-.2 4.1-1.6 4.1-1.6l-2 .2.8-1.7s-2.3 1.9-4.3 2.1c-2 .3-3.5-1-3.5-1-.2 1.2 1.4 1.9 3.2 2.1zM72.2 103.4c-.1 1.3-4.1.6-4.7.3 2.9 1.9 8.4-.3 8.4-.3l-2.6.1 3-1.5s-6.7.4-7-1.3c-.2 1.2 1.5 2.2 2.9 2.7z" opacity=".3"></path>
    <path d="M75.1 104.8s-2.1.6-3.6.6c-1.4 0-3.8-1.3-4-1.7.1 1.1 1.2 2.5 3 2.6 3.4.3 4.6-1.5 4.6-1.5zM77.7 111.1c0-1.2-.3-8.2-.3-8.2s-.2 4.2-3.9 7.8c-1.3 1.2-4.6 1.6-4.6 1.6 1.9.9 6.6-.2 7.7-1.8 1 .5.8 2.1.5 3.2.3-.8.6-1.9.6-2.6z" opacity=".3"></path>
  </g>
  <g>
    <path d="M60.5 118.4l-3.5 1.3 2.5.1-1.5 1h3.5l2.1-.5-.3 1.7 2.1-.4 1.6-1.3 3 1 3.2-.5-1-.6 1.1-.3-4.5-1.2z" opacity=".3"></path>
    <path fill="#28896D" d="M61.9 105.3c2.6-.3 3.8-5.3 3.8-5.3s.5 4.9 3.8 6.2c.1.5-1.1.9-2.2.4-.1 1 2.1 2.5 3.4 2.9 0 .5-1.2 1.3-2.4.9.5 1.2 1.4 2.2 3.4 2.7-.9.5-2.4 0-3.3 0 0 .8 2.9 1.5 4.4 1.5-.3.8-1.7 1.5-2.9 1.5 0 .9 2.9 1.6 3.6 1.8.1.7-2 1.2-3.4.7 0 .9 1.5 1.6 2.2 2 0 .7-4.7.5-5.4-.9-.9.3-1.4 2.2-3.1 2 .2-.5.7-2-.1-2.4-.7 1-3.5 1.6-4.7 1.1.3-.3 2-.5 1.5-1.6-1.5 0-3.5-1.4-3.4-2 .4.3 2.8.6 2.9 0-1.1-.1-1.8-1-1.8-1.6.4.2 2.8.6 2.9-.2-.9-.3-1.9-.9-1.8-1.6.7.1 2.3 0 2.4-.7-.9-.3-1.8-1.7-1.8-2.2.7.2 3.3 0 3.3-.5-1.1-.1-2.1-.5-2-1.3 1.5-.1 3.1-1.7 3.1-2.4-.8 0-2-.2-2.4-1z"></path>
    <path fill="#FFF" d="M71.9 113.1s-1.9.1-3.4-1.5c-1.6-1.5-2-2.5-2-2.5s-.4.5-1.6 1.3c-1.3.8-4 .7-4 .7s1.7 1.3 4.2.5c1.2-.4 1.1-.6 1.1-.6s1.7 1.5 2.4 1.7c2.3.9 3.3.4 3.3.4zM61.7 108.7c2.2-1.2 3.5-2.1 4-4-.1.9 1.7 3.3 3.4 4.5-1.3-.1-2.9-2.3-3.6-2.2-.1.7-2.3 1.6-3.8 1.7z" opacity=".2"></path>
    <path fill="#FFF" d="M62.7 105.5c2.2-1.2 2.5-2.7 3-4.6-.1.9 1 3.6 2.7 4.9-1.3-.1-2.4-1.9-2.9-2.4-.1.7-1.3 1.9-2.8 2.1zM59.5 113.6s2.7 0 4.8-1c.6 0 1.5 1.9 2 2 .5-.1.8-.3 1.3-.6.4 1.9 3.7 3.5 5.6 4-3.4 0-5.8-2.2-6.2-2.9-.4.3-.5 1.3-1.3 1.3-.6-.9-1.6-2.2-1.8-2.9-.7-.2-3.4.7-4.4.1z" opacity=".2"></path>
    <path fill="#FFF" d="M57.9 117.3c3.8.4 5.2-1.3 5.8-2-.4 2.6-4.7 3.3-5.8 2zM67.9 116.8c1.1 1.8 1.5 2.8 4 3.6-4 .2-4.4-2.8-4-3.6zM64.3 121.1c.2.1 2.6-3.6.8-4.3-.9.6 0 2.5-.8 4.3z" opacity=".2"></path>
    <path d="m67 105.8-1-.8s.8 1 1.3 1.6c1 .5 2.2.1 2.2-.4 0 0-1.5.3-2.5-.4zM68.3 119.5c-1.2-1.2-1.5-3.1-1.5-3.1s-.7 2.5-1.3 3.7c-.4.7-.7 1.3-1.7 1.6v.1c1.7.1 2.3-1.7 3.1-2 .8 1.4 5.4 1.6 5.4.9.1-.2-2.8 0-4-1.2zM70.4 115.1c-1.2-.1-2.9-2.3-2.9-2.3s-.8.4-1.3.1-.9-.7-.9-.7.4 2.1 1.1 2c.7-.1 1-.3 1.3-.6.3 1.6 2.4 2.5 2.4 2.5 1.2.1 2.6-.7 2.9-1.5 0-.1-1.4.5-2.6.5zM63 109.8c.4 0 .7 0 1.1-.1.9-.1 2.5-1 2.5-1l-1.2.1.5-1.1s-1.4 1.1-2.6 1.3c-1.2.2-2.2-.6-2.2-.6-.2.9.8 1.3 1.9 1.4zM61 114.9c-.1.8-2.5.4-2.9.2 1.8 1.2 5.2-.2 5.2-.2h-1.6l1.9-.9s-4.1.2-4.3-.8c-.2.8.8 1.4 1.7 1.7z" opacity=".3"></path>
    <path d="M62.7 115.8s-1.3.4-2.2.4c-.8 0-2.4-.8-2.4-1 .1.7.7 1.5 1.8 1.6 2.1.1 2.8-1 2.8-1zM64.4 119.6c0-.7-.2-5-.2-5s-.1 2.5-2.4 4.8c-.8.7-2.8 1-2.8 1 1.2.5 4-.1 4.7-1.1.6.3.5 1.3.3 1.9.2-.5.4-1.1.4-1.6z" opacity=".3"></path>
  </g>
</svg>
